<?xml version="1.0" encoding="utf-8"?>
<!-- Generator: Adobe Illustrator 19.0.1, SVG Export Plug-In . SVG Version: 6.00 Build 0)  -->
<svg version="1.1" id="Слой_1" xmlns="http://www.w3.org/2000/svg" xmlns:xlink="http://www.w3.org/1999/xlink" x="0px" y="0px"
	 viewBox="0 0 3659.6572266 3586.409668" style="enable-background:new 0 0 3659.6572266 3586.409668;" xml:space="preserve">
<style type="text/css">
	.st0{fill:#383838;}
	.st1{fill:#CBCBCB;}
	.st2{fill:#FF9900;}
</style>
<g>
	<path class="st0" d="M2096.157959,721.5621338h-532.6584473L866.835083,2653.21875h453.8028564l137.119873-380.1948242h744.1469727
		l137.1223145,380.1948242h453.7897949L2096.157959,721.5621338z M1592.4699707,1899.4991455l237.3586426-658.1367188
		l237.3613281,658.1367188H1592.4699707z"/>
	<g>
		<g>
			<path class="st1" d="M3043.8911133,544.7781372c-199.9428711-199.9957275-440.5458984-344.5499573-703.1340332-425.9784241
				V288.059967c608.2585449,211.8950806,1045.9228516,791.1789551,1045.9228516,1470.7805176
				c0,858.4666748-698.3845215,1556.8514404-1556.8513184,1556.8514404S272.977356,2617.3071289,272.977356,1758.8404541
				c0-679.6015625,437.6644287-1258.885376,1045.9228516-1470.7805176V118.7997208
				c-262.5880127,81.4284592-503.1911621,225.9826965-703.1338501,425.9784241
				c-324.2726135,324.2729492-502.8710022,755.4271851-502.8710022,1214.0622559
				c0,458.581665,178.5983887,889.7894287,502.8710022,1214.0621338
				c324.2730103,324.2729492,755.4271851,502.8713379,1214.0622559,502.8713379s889.7893066-178.5983887,1214.0625-502.8713379
				c324.2724609-324.2727051,502.8708496-755.4804688,502.8708496-1214.0621338
				C3546.7619629,1300.2053223,3368.1635742,869.0510864,3043.8911133,544.7781372z"/>
		</g>
	</g>
	<g>
		<path class="st0" d="M1388.7145996,160.9948425c0,27.769455,22.5895996,50.3591461,50.3591309,50.3591461h46.6905518
			c12.3214111,0,22.3448486,10.0233765,22.3448486,22.3447876c0,12.3214264-10.0234375,22.3448029-22.3448486,22.3448029
			h-97.0496826v32.0163879h97.0496826c29.9737549,0,54.3612061-24.3874817,54.3612061-54.3611908
			s-24.3874512-54.3611908-54.3612061-54.3611908h-46.6905518c-10.114624,0-18.3427734-8.2281799-18.3427734-18.3427429
			c0-10.1145477,8.2281494-18.3427277,18.3427734-18.3427277h101.0517578V110.635704h-101.0517578
			C1411.3041992,110.635704,1388.7145996,133.2254028,1388.7145996,160.9948425z"/>
		<polygon class="st0" points="1582.8140869,142.6521149 1631.5056152,142.6521149 1631.5056152,288.059967 
			1663.5220947,288.059967 1663.5220947,142.6521149 1712.2137451,142.6521149 1712.2137451,110.635704 1582.8140869,110.635704 		
			"/>
		<polygon class="st0" points="2141.5405273,110.635704 2141.5405273,142.6521149 2190.2321777,142.6521149 
			2190.2321777,288.059967 2222.2485352,288.059967 2222.2485352,142.6521149 2270.9401855,142.6521149 2270.9401855,110.635704 		
			"/>
		<path class="st0" d="M1814.0810547,110.635704l-85.1999512,177.4242554h35.7058105l16.1019287-33.5692749h86.2160645
			l16.1801758,33.5692749h35.7006836l-85.4709473-177.4242554H1814.0810547z M1796.4365234,221.6561432l27.25354-56.815567
			l27.3890381,56.815567H1796.4365234z"/>
		<path class="st0" d="M2078.4091797,237.851944l-11.3183594-25.8205261
			c20.4533691-7.639328,33.9914551-26.9877777,33.9914551-49.0355377c0-28.8715668-23.4912109-52.3601761-52.3601074-52.3601761
			h-92.3807373V288.059967h32.0163574v-72.7039185h45.1325684l15.7684326,41.5317078l0.2814941,0.5914307
			c9.3432617,18.8612366,28.2280273,30.58078,49.2805176,30.58078h15.1535645v-32.0163879h-15.1535645
			C2091.9733887,256.0435791,2084.7666016,253.8497314,2078.4091797,237.851944z M1988.3577881,142.6521149h60.3643799
			c11.2192383,0,20.34375,9.1270752,20.34375,20.3437653c0,11.2166748-9.1245117,20.34375-20.34375,20.34375h-60.3643799
			V142.6521149z"/>
	</g>
	<g>
		<path id="path8" inkscape:connector-curvature="0" class="st2" d="M2253.001709,428.5267944
			c-114.7263184,84.562439-281.0152588,129.6795044-424.1867676,129.6795044
			c-200.7497559,0-381.4759521-74.2498779-518.2023926-197.7419128c-10.7420654-9.7109985-1.1171875-22.945282,11.7734375-15.382843
			c147.5544434,85.8514709,329.9995117,137.4998779,518.4602051,137.4998779
			c127.1013184,0,266.9213867-26.2969055,395.4836426-80.8670654
			C2255.751709,393.4642944,2271.9938965,414.433075,2253.001709,428.5267944"/>
		<path id="path10" inkscape:connector-curvature="0" class="st2" d="M2300.6970215,373.9565735
			c-14.609375-18.734314-96.9372559-8.8515625-133.8903809-4.46875c-11.2578125,1.3750305-12.9765625-8.421875-2.8359375-15.4687805
			c65.5703125-46.1483459,173.1638184-32.828064,185.7106934-17.3593445
			c12.546875,15.554718-3.265625,123.406189-64.8828125,174.8825684c-9.4528809,7.9062195-18.4765625,3.695282-14.2653809-6.789032
			c13.8359375-34.5468445,44.859375-111.9763794,30.1640625-130.7966919"/>
	</g>
</g>
</svg>
